<?xml version="1.0" encoding="utf-8"?>
<!-- Generator: Adobe Illustrator 18.0.0, SVG Export Plug-In . SVG Version: 6.00 Build 0)  -->
<!DOCTYPE svg PUBLIC "-//W3C//DTD SVG 1.1//EN" "http://www.w3.org/Graphics/SVG/1.1/DTD/svg11.dtd">
<svg version="1.1" xmlns="http://www.w3.org/2000/svg" xmlns:xlink="http://www.w3.org/1999/xlink" x="0px" y="0px"
	 viewBox="0 0 270.6 139.9" enable-background="new 0 0 270.6 139.9" xml:space="preserve">
<g id="Layer_1">
	<g>
		<path fill="#009B48" d="M66.8,93v-0.3c0-1.5-0.5-2.3-1.6-2.3c-0.5,0-1,0.2-1.2,0.7c-0.3,0.4-0.3,0.8-0.3,1.9v4.5
			c0,1,0.1,1.6,0.2,2c0.2,0.5,0.7,0.9,1.4,0.9c1.1,0,1.6-0.9,1.6-2.6c0-0.1,0-0.2,0-0.3h2.1v0.5c0,2.9-1.3,4.5-3.7,4.5
			c-1.4,0-2.4-0.5-3-1.5c-0.5-0.8-0.6-1.6-0.6-3.6v-3.8c0-2.1,0.2-2.9,0.8-3.7c0.6-0.8,1.6-1.3,2.9-1.3c2.3,0,3.7,1.5,3.7,4.2V93
			H66.8z"/>
		<path fill="#009B48" d="M77.2,98.6c0,1.6-0.2,2.3-0.8,2.9c-0.5,0.5-1.3,0.8-2.3,0.8c-1,0-1.8-0.3-2.3-0.8
			c-0.6-0.6-0.8-1.3-0.8-2.9v-3.1c0-1.6,0.2-2.3,0.8-2.9c0.5-0.5,1.3-0.8,2.3-0.8c1,0,1.7,0.3,2.3,0.8c0.6,0.6,0.8,1.3,0.8,2.9V98.6
			z M72.9,98.7c0,1.3,0.4,1.8,1.2,1.8c0.8,0,1.2-0.6,1.2-1.8v-3.3c0-1.3-0.4-1.8-1.2-1.8c-0.8,0-1.2,0.6-1.2,1.8V98.7z"/>
		<path fill="#009B48" d="M81.5,93.3c0.9-1,1.6-1.4,2.5-1.4c1.1,0,1.6,0.7,1.6,2.3v7.9h-1.9v-7.4c0-0.9-0.2-1.2-0.7-1.2
			c-0.5,0-1.1,0.4-1.5,1v7.5h-1.9V92h1.9V93.3z"/>
		<path fill="#009B48" d="M90.2,102.1L87.8,92h2l1.4,6.4l1.3-6.4h2l-2.2,10.1H90.2z"/>
		<path fill="#009B48" d="M98.2,97.4v0.9c0,1,0.1,1.4,0.2,1.8c0.2,0.3,0.6,0.5,1,0.5c0.8,0,1.2-0.5,1.2-1.7v-0.3h1.9
			c0,1.4-0.1,1.8-0.4,2.3c-0.5,0.9-1.5,1.4-2.7,1.4c-1.2,0-2-0.4-2.5-1.1c-0.4-0.6-0.6-1.4-0.6-2.7v-3c0-1.6,0.2-2.3,0.8-2.9
			c0.5-0.5,1.3-0.8,2.3-0.8c1,0,1.8,0.3,2.4,0.9c0.6,0.6,0.8,1.4,0.8,3v1.7H98.2z M100.6,95.2c0-1.2-0.4-1.7-1.2-1.7
			c-0.9,0-1.2,0.5-1.2,1.7v0.5h2.5V95.2z"/>
		<path fill="#009B48" d="M106.7,93.3c0.9-1,1.6-1.4,2.5-1.4c1.1,0,1.6,0.7,1.6,2.3v7.9h-1.9v-7.4c0-0.9-0.2-1.2-0.7-1.2
			c-0.5,0-1.1,0.4-1.5,1v7.5h-1.9V92h1.9V93.3z"/>
		<path fill="#009B48" d="M117.7,93.7H116v5.4c0,1,0.3,1.4,1.2,1.4c0.2,0,0.4,0,0.7-0.1v1.7c-0.5,0.1-0.9,0.1-1.3,0.1
			c-1,0-1.6-0.2-2-0.7c-0.4-0.4-0.5-0.9-0.5-2.2v-5.6h-1.5V92h1.5v-2.8h1.9V92h1.7V93.7z"/>
		<path fill="#009B48" d="M121.6,90.5h-1.9v-2h1.9V90.5z M121.6,102.1h-1.9V92h1.9V102.1z"/>
		<path fill="#009B48" d="M130.1,98.6c0,1.6-0.2,2.3-0.8,2.9c-0.5,0.5-1.3,0.8-2.3,0.8c-1,0-1.8-0.3-2.3-0.8
			c-0.6-0.6-0.8-1.3-0.8-2.9v-3.1c0-1.6,0.2-2.3,0.8-2.9c0.5-0.5,1.3-0.8,2.3-0.8c1,0,1.7,0.3,2.3,0.8c0.6,0.6,0.8,1.3,0.8,2.9V98.6
			z M125.8,98.7c0,1.3,0.4,1.8,1.2,1.8c0.8,0,1.2-0.6,1.2-1.8v-3.3c0-1.3-0.4-1.8-1.2-1.8c-0.9,0-1.2,0.6-1.2,1.8V98.7z"/>
		<path fill="#009B48" d="M134.3,93.3c0.9-1,1.6-1.4,2.5-1.4c1.1,0,1.6,0.7,1.6,2.3v7.9h-1.9v-7.4c0-0.9-0.2-1.2-0.7-1.2
			c-0.5,0-1.1,0.4-1.5,1v7.5h-1.9V92h1.9V93.3z"/>
		<path fill="#009B48" d="M151.5,98.6c0,1.6-0.2,2.3-0.8,2.9c-0.5,0.5-1.3,0.8-2.3,0.8c-1,0-1.8-0.3-2.3-0.8
			c-0.6-0.6-0.8-1.3-0.8-2.9v-3.1c0-1.6,0.2-2.3,0.8-2.9c0.5-0.5,1.3-0.8,2.3-0.8c1,0,1.7,0.3,2.3,0.8c0.6,0.6,0.8,1.3,0.8,2.9V98.6
			z M147.2,98.7c0,1.3,0.4,1.8,1.2,1.8c0.8,0,1.2-0.6,1.2-1.8v-3.3c0-1.3-0.4-1.8-1.2-1.8c-0.9,0-1.2,0.6-1.2,1.8V98.7z"/>
		<path fill="#009B48" d="M155.4,93.3c0.9-1,1.6-1.4,2.5-1.4c1.1,0,1.6,0.7,1.6,2.3v7.9h-1.9v-7.4c0-0.9-0.2-1.2-0.7-1.2
			c-0.5,0-1.1,0.4-1.5,1v7.5h-1.9V92h1.9V93.3z"/>
		<path fill="#009B48" d="M61.7,109.4h3.1c2.5,0,3.9,1.2,3.9,3.4c0,1.6-0.7,2.5-2.2,3c1.8,0.5,2.5,1.5,2.5,3.2c0,2.4-1.5,3.8-4,3.8
			h-3.4V109.4z M64.6,114.9c1.3,0,2.1-0.7,2.1-1.9c0-0.5-0.2-1-0.5-1.3c-0.3-0.3-0.8-0.4-1.6-0.4h-0.8v3.6H64.6z M64.9,120.9
			c1.3,0,2.1-0.7,2.1-1.9c0-1.4-0.9-2.2-2.4-2.2h-0.7v4.1H64.9z"/>
		<path fill="#009B48" d="M73.3,111.3h-1.9v-2h1.9V111.3z M73.3,122.9h-1.9v-10.1h1.9V122.9z"/>
		<path fill="#009B48" d="M81.8,119.4c0,1.6-0.2,2.3-0.8,2.9c-0.5,0.5-1.3,0.8-2.3,0.8c-1,0-1.8-0.3-2.3-0.8
			c-0.6-0.6-0.8-1.3-0.8-2.9v-3.1c0-1.6,0.2-2.3,0.8-2.9c0.5-0.5,1.3-0.8,2.3-0.8c1,0,1.7,0.3,2.3,0.8c0.6,0.6,0.8,1.3,0.8,2.9
			V119.4z M77.5,119.5c0,1.3,0.4,1.8,1.2,1.8c0.8,0,1.2-0.6,1.2-1.8v-3.3c0-1.3-0.4-1.8-1.2-1.8c-0.8,0-1.2,0.6-1.2,1.8V119.5z"/>
		<path fill="#009B48" d="M85.9,122.9H84v-13.5h1.9V122.9z"/>
		<path fill="#009B48" d="M94.4,119.4c0,1.6-0.2,2.3-0.8,2.9c-0.5,0.5-1.3,0.8-2.3,0.8c-1,0-1.8-0.3-2.3-0.8
			c-0.6-0.6-0.8-1.3-0.8-2.9v-3.1c0-1.6,0.2-2.3,0.8-2.9c0.5-0.5,1.3-0.8,2.3-0.8c1,0,1.7,0.3,2.3,0.8c0.6,0.6,0.8,1.3,0.8,2.9
			V119.4z M90.1,119.5c0,1.3,0.4,1.8,1.2,1.8c0.8,0,1.2-0.6,1.2-1.8v-3.3c0-1.3-0.4-1.8-1.2-1.8c-0.9,0-1.2,0.6-1.2,1.8V119.5z"/>
		<path fill="#009B48" d="M103.8,114.7c-0.2-0.2-0.4-0.3-0.6-0.3c-0.3,0-0.5,0.1-0.7,0.4c0.1,0.5,0.2,1,0.2,1.7c0,2.5-1.1,3.9-3,3.9
			c-0.2,0-0.4,0-0.7-0.1c-0.3,0.1-0.4,0.3-0.4,0.6c0,0.2,0.1,0.4,0.4,0.4c0.2,0,0.4,0.1,1.6,0.1c1.3,0.1,1.8,0.2,2.4,0.5
			c0.6,0.4,1,1.1,1,1.9c0,1.7-1.3,2.5-4,2.5c-2.3,0-3.5-0.6-3.5-1.8c0-0.8,0.5-1.3,1.6-1.7c-0.9-0.3-1.2-0.7-1.2-1.3
			c0-0.8,0.4-1.2,1.6-1.6c-1.2-0.6-1.7-1.7-1.7-3.6c0-2.5,1.1-3.8,3.1-3.8c1.2,0,1.8,0.4,2.4,1.3c0.3-0.9,0.8-1.3,1.8-1.2V114.7z
			 M98.6,123.2c-0.2,0.2-0.4,0.6-0.4,0.9c0,0.6,0.5,0.8,1.9,0.8c1.3,0,1.9-0.3,1.9-0.9c0-0.4-0.2-0.6-0.8-0.7
			c-0.3-0.1-0.5-0.1-1.5-0.1C99.4,123.2,99.1,123.2,98.6,123.2C98.6,123.1,98.6,123.2,98.6,123.2z M98.4,117.1
			c0,1.1,0.4,1.6,1.1,1.6c0.8,0,1.2-0.5,1.2-1.6V116c0-1.1-0.4-1.6-1.1-1.6c-0.8,0-1.2,0.5-1.2,1.6V117.1z"/>
		<path fill="#009B48" d="M107.3,111.3h-1.9v-2h1.9V111.3z M107.3,122.9h-1.9v-10.1h1.9V122.9z"/>
		<path fill="#009B48" d="M114,116.3V116c0-1.2-0.4-1.7-1.2-1.7c-0.5,0-0.9,0.2-1,0.5c-0.2,0.3-0.2,0.8-0.2,1.8v2.4
			c0,1,0.1,1.4,0.2,1.7c0.2,0.3,0.6,0.5,1,0.5c0.8,0,1.2-0.5,1.2-1.8v-0.3h1.9v0.4c0,1.2-0.2,1.9-0.7,2.4c-0.5,0.6-1.4,0.9-2.4,0.9
			c-1.1,0-2-0.4-2.5-1.1c-0.5-0.6-0.6-1.3-0.6-2.7v-2.9c0-1.4,0.2-2.1,0.6-2.7c0.5-0.7,1.4-1.1,2.5-1.1c1,0,1.8,0.3,2.4,0.9
			c0.5,0.5,0.7,1.2,0.7,2.4v0.4H114z"/>
		<path fill="#009B48" d="M122,122.9c-0.1-0.3-0.2-0.7-0.2-1.2c-0.9,1-1.5,1.3-2.3,1.3c-1.3,0-2-1-2-2.7c0-1.3,0.5-2,1.6-2.8
			c0.5-0.3,1-0.5,2.7-1.3v-0.5c0-1-0.3-1.4-1-1.4c-0.7,0-1,0.4-1.1,1.4h-2c0.2-2,1.3-3.1,3.4-3.1c0.9,0,1.6,0.3,2.1,0.8
			c0.4,0.5,0.5,1,0.5,2.2v4.5c0,1.5,0,2,0.2,2.7H122z M121.8,117.7c-1.7,0.9-2.3,1.6-2.3,2.5c0,0.7,0.4,1.1,1,1.1
			c0.5,0,1-0.3,1.4-0.9V117.7z"/>
		<path fill="#009B48" d="M128.1,122.9h-1.9v-13.5h1.9V122.9z"/>
		<path fill="#009B48" d="M134.8,109.4h3.3c2.7,0,3.9,1.4,3.9,4.2v5c0,2.9-1.3,4.2-3.9,4.2h-3.3V109.4z M137.9,120.9
			c1.5,0,2-0.8,2-2.9v-3.9c0-2.1-0.5-2.9-2-2.9h-1v9.7H137.9z"/>
		<path fill="#009B48" d="M146.1,111.3h-1.9v-2h1.9V111.3z M146.1,122.9h-1.9v-10.1h1.9V122.9z"/>
		<path fill="#009B48" d="M150.5,122.9l-2.5-10.1h2l1.4,6.4l1.3-6.4h2l-2.2,10.1H150.5z"/>
		<path fill="#009B48" d="M158.2,118.1v0.9c0,1,0.1,1.4,0.2,1.8c0.2,0.3,0.6,0.5,1,0.5c0.8,0,1.2-0.5,1.2-1.7v-0.3h1.9
			c0,1.4-0.1,1.8-0.4,2.3c-0.5,0.9-1.5,1.4-2.7,1.4c-1.2,0-2-0.4-2.5-1.1c-0.4-0.6-0.6-1.4-0.6-2.7v-3c0-1.6,0.2-2.3,0.8-2.9
			c0.5-0.5,1.3-0.8,2.3-0.8c1,0,1.8,0.3,2.4,0.9c0.6,0.6,0.8,1.4,0.8,3v1.7H158.2z M160.6,115.9c0-1.2-0.4-1.7-1.2-1.7
			s-1.2,0.5-1.2,1.7v0.5h2.5V115.9z"/>
		<path fill="#009B48" d="M166.6,112.8v1.7c0.5-1.3,1.2-1.9,2.4-1.9v2.2c-0.4-0.1-0.6-0.2-0.9-0.2c-0.5,0-0.9,0.2-1.2,0.5
			c-0.3,0.3-0.3,0.7-0.3,1.6v6.1h-1.9v-10.1H166.6z"/>
		<path fill="#009B48" d="M174.5,115.8c-0.4-1.1-0.8-1.5-1.6-1.5c-0.6,0-1,0.4-1,0.9c0,0.5,0.3,0.8,1.7,1.6c1.1,0.6,1.6,1,2,1.4
			c0.4,0.5,0.7,1.2,0.7,1.9c0,1.8-1.3,3-3.1,3c-1.7,0-2.8-0.9-3.4-2.8l1.8-0.6c0.4,1.2,0.9,1.7,1.7,1.7c0.6,0,1.1-0.4,1.1-1
			c0-0.6-0.3-0.9-1.4-1.5c-1.4-0.8-1.8-1-2.2-1.5c-0.5-0.5-0.7-1.2-0.7-1.9c0-1.6,1.2-2.8,2.9-2.8c1.6,0,2.6,0.8,3.3,2.4
			L174.5,115.8z"/>
		<path fill="#009B48" d="M180.1,111.3h-1.9v-2h1.9V111.3z M180.1,122.9h-1.9v-10.1h1.9V122.9z"/>
		<path fill="#009B48" d="M186.8,114.5h-1.7v5.4c0,1,0.3,1.4,1.2,1.4c0.2,0,0.4,0,0.7-0.1v1.7c-0.5,0.1-0.8,0.1-1.3,0.1
			c-1,0-1.6-0.2-2-0.7c-0.4-0.4-0.5-0.9-0.5-2.2v-5.6h-1.5v-1.7h1.5v-2.8h1.9v2.8h1.7V114.5z"/>
		<path fill="#009B48" d="M194.7,112.8l-2.2,9.6c-0.7,3.3-1.4,4-4.3,4v-1.9c0.1,0,0.3,0,0.3,0c1.1,0,1.7-0.7,1.7-1.7
			c0-0.2,0-0.5-0.1-0.9l-2.2-9.2h2l1.5,6.9l1.4-6.9H194.7z"/>
	</g>
	<g>
		<path fill="#0081C6" d="M2.7,139.7v-3.2L0,131.2h2.4l1.4,3.2l1.4-3.2h2.4l-2.7,5.3v3.2H2.7z"/>
		<path fill="#0081C6" d="M15.3,139.7H9.5v-8.5h5.6v1.9h-3.4v1.3h3v1.8h-3v1.5h3.6V139.7z"/>
		<path fill="#0081C6" d="M17.1,139.7l2.6-8.5h2.9l2.5,8.5h-2.4l-0.4-1.4h-2.6l-0.4,1.4H17.1z M20.2,136.6H22l-0.9-3.4h0L20.2,136.6
			z"/>
		<path fill="#0081C6" d="M31.6,139.7l-1.4-3h-0.8v3h-2.2v-8.5h3.3c2,0,3.3,1.1,3.3,2.8c0,1.1-0.5,1.9-1.4,2.4l1.8,3.4H31.6z
			 M30.3,135.1c0.7,0,1.2-0.3,1.2-1c0-0.6-0.4-1-1.1-1h-1v2H30.3z"/>
		<path fill="#0081C6" d="M36.9,136.9c0.9,0.7,1.8,1.1,2.5,1.1c0.6,0,1-0.3,1-0.6c0-1.3-4.2-0.6-4.2-3.6c0-1.6,1.3-2.7,3.1-2.7
			c1.1,0,2.2,0.4,3.3,1.2l-1.1,1.7c-0.8-0.6-1.5-0.9-2.2-0.9c-0.5,0-0.9,0.2-0.9,0.6c0,1.2,4.2,0.6,4.2,3.6c0,1.7-1.3,2.8-3.3,2.8
			c-1.2,0-2.5-0.5-3.6-1.3L36.9,136.9z"/>
	</g>
	<g>
		<g>
			<path fill="#F58426" d="M62.4,136.9c0.9,0.7,1.8,1.1,2.5,1.1c0.6,0,1-0.3,1-0.6c0-1.3-4.2-0.6-4.2-3.6c0-1.6,1.3-2.7,3.1-2.7
				c1.1,0,2.2,0.4,3.3,1.2l-1.1,1.7c-0.8-0.6-1.5-0.9-2.2-0.9c-0.5,0-0.9,0.2-0.9,0.6c0,1.2,4.2,0.6,4.2,3.6c0,1.7-1.3,2.8-3.3,2.8
				c-1.2,0-2.5-0.5-3.6-1.3L62.4,136.9z"/>
			<path fill="#F58426" d="M69.6,139.7l2.6-8.5h2.9l2.5,8.5h-2.4l-0.4-1.4h-2.6l-0.4,1.4H69.6z M72.7,136.6h1.8l-0.9-3.4h0
				L72.7,136.6z"/>
			<path fill="#F58426" d="M79.6,139.7v-8.5h5.5v1.9h-3.3v1.6h3v1.9h-3v3.1H79.6z"/>
			<path fill="#F58426" d="M93.3,139.7h-5.8v-8.5h5.6v1.9h-3.4v1.3h3v1.8h-3v1.5h3.6V139.7z"/>
			<path fill="#F58426" d="M101.3,138.8c-0.5,0.7-1.3,1.1-2.3,1.1c-2.1,0-3.7-1.8-3.7-4.4c0-2.6,1.6-4.5,4-4.5
				c1.5,0,2.8,0.8,3.5,2.1l-1.9,1c-0.3-0.7-0.9-1.1-1.6-1.1c-1.1,0-1.7,1-1.7,2.6s0.6,2.5,1.7,2.5c0.8,0,1.3-0.5,1.5-1.2h-1.6v-1.7
				h3.6v4.5h-1.5L101.3,138.8z"/>
			<path fill="#F58426" d="M112.6,131.2v5.2c0,2.2-1.3,3.5-3.5,3.5s-3.5-1.3-3.5-3.5v-5.2h2.2v5.2c0,1,0.5,1.6,1.3,1.6
				s1.3-0.6,1.3-1.6v-5.2H112.6z"/>
			<path fill="#F58426" d="M114.2,139.7l2.6-8.5h2.9l2.5,8.5h-2.4l-0.4-1.4h-2.6l-0.4,1.4H114.2z M117.3,136.6h1.8l-0.9-3.4h0
				L117.3,136.6z"/>
			<path fill="#F58426" d="M128.7,139.7l-1.4-3h-0.8v3h-2.2v-8.5h3.3c2,0,3.3,1.1,3.3,2.8c0,1.1-0.5,1.9-1.4,2.4l1.8,3.4H128.7z
				 M127.4,135.1c0.7,0,1.2-0.3,1.2-1c0-0.6-0.4-1-1.1-1h-1v2H127.4z"/>
			<path fill="#F58426" d="M133.4,131.2h2.8c2.7,0,4.4,1.6,4.4,4.2c0,2.6-1.7,4.3-4.4,4.3h-2.8V131.2z M135.6,137.8h0.6
				c1.3,0,2.1-0.9,2.1-2.3c0-1.5-0.8-2.3-2.1-2.3h-0.6V137.8z"/>
			<path fill="#F58426" d="M143,139.7v-8.5h2.2v8.5H143z"/>
			<path fill="#F58426" d="M147.9,139.7v-8.5h2.4l2.8,4.5h0v-4.5h2.2v8.5h-2.2l-3-4.9h0v4.9H147.9z"/>
			<path fill="#F58426" d="M163.7,138.8c-0.5,0.7-1.3,1.1-2.3,1.1c-2.1,0-3.7-1.8-3.7-4.4c0-2.6,1.6-4.5,4-4.5
				c1.5,0,2.8,0.8,3.5,2.1l-1.9,1c-0.3-0.7-0.9-1.1-1.6-1.1c-1.1,0-1.7,1-1.7,2.6s0.6,2.5,1.7,2.5c0.8,0,1.3-0.5,1.5-1.2h-1.6v-1.7
				h3.6v4.5h-1.5L163.7,138.8z"/>
			<path fill="#F58426" d="M177.4,139.7h-5.5v-8.5h2.2v6.5h3.3V139.7z"/>
			<path fill="#F58426" d="M179.6,139.7v-8.5h2.2v8.5H179.6z"/>
			<path fill="#F58426" d="M184.5,139.7v-8.5h5.5v1.9h-3.3v1.6h3v1.9h-3v3.1H184.5z"/>
			<path fill="#F58426" d="M198.2,139.7h-5.8v-8.5h5.6v1.9h-3.4v1.3h3v1.8h-3v1.5h3.6V139.7z"/>
			<path fill="#F58426" d="M204.3,135.5c0-2.6,1.6-4.4,4-4.4c2.4,0,4,1.8,4,4.4c0,2.6-1.6,4.4-4,4.4
				C205.9,139.9,204.3,138.1,204.3,135.5z M209.9,135.5c0-1.5-0.6-2.5-1.7-2.5c-1,0-1.7,0.9-1.7,2.5c0,1.5,0.6,2.5,1.7,2.5
				C209.3,138,209.9,137,209.9,135.5z"/>
			<path fill="#F58426" d="M214.6,139.7v-8.5h2.4l2.8,4.5h0v-4.5h2.2v8.5h-2.2l-3-4.9h0v4.9H214.6z"/>
			<path fill="#F58426" d="M234.4,139.7h-5.8v-8.5h5.6v1.9h-3.4v1.3h3v1.8h-3v1.5h3.6V139.7z"/>
			<path fill="#F58426" d="M236.3,139.7l2.6-8.5h2.9l2.5,8.5h-2.4l-0.4-1.4h-2.6l-0.4,1.4H236.3z M239.4,136.6h1.8l-0.9-3.4h0
				L239.4,136.6z"/>
			<path fill="#F58426" d="M250.7,139.7l-1.4-3h-0.8v3h-2.2v-8.5h3.3c2,0,3.3,1.1,3.3,2.8c0,1.1-0.5,1.9-1.4,2.4l1.8,3.4H250.7z
				 M249.4,135.1c0.7,0,1.2-0.3,1.2-1c0-0.6-0.4-1-1.1-1h-1v2H249.4z"/>
			<path fill="#F58426" d="M257.1,139.7v-6.5h-2.2v-2h6.6v2h-2.2v6.5H257.1z"/>
			<path fill="#F58426" d="M263.6,139.7v-8.5h2.2v3.1h2.5v-3.1h2.2v8.5h-2.2v-3.4h-2.5v3.4H263.6z"/>
		</g>
	</g>
	<path fill-rule="evenodd" clip-rule="evenodd" fill="#009B48" d="M65.6,33l7.2-0.4c12.7-0.7,12.9-10.3,12.9-10.4V0.1L84.8,0
		c0,0.1-2,9.9-11.1,10.3l-8.3,0.4c-7,0.3-10.6,4.7-12.3,8.8c-1.7,4.1-1.8,8.2-1.8,8.2v15.5c-0.2-0.7-0.4-1.3-0.7-1.9
		c-1.8-4.2-5.3-8.5-12.3-8.8L30,32.1c-5.5-0.3-9-4-10.6-8.8c-0.3-0.9-0.4-1.5-0.4-1.5l-1.1,0.1v22.1c0,0,0,0.6,0.2,1.6
		c1.4,6,6.8,8.5,12.7,8.9l7.3,0.4c10.7,0.6,13.1,12.4,13.2,14.4v10.2v7.2v53.1h1.9V82.9c1.4-4.2,4.7-10.5,12.4-10.9l7.2-0.4
		c12.7-0.7,12.9-10.3,12.9-10.4V39.1L84.8,39c0,0-2,9.9-11.1,10.3l-8.3,0.4c-7,0.4-10.6,4.7-12.3,8.8c-0.3,0.6-0.5,1.2-0.7,1.8
		l0-12.9C52.2,46.5,55.3,33,65.6,33z M50.3,60.2c-2.4-4-5-7-12.5-7.4l-6.9-0.4c-5.1-0.3-9.9-2.3-11.1-7.3c-0.2-0.7-0.2-1.2-0.2-1.2
		V27.9c1.9,4.1,5.1,5.6,10.4,6.4l7.9,0.3C50.2,35.2,50.3,48.9,50.3,49V60.2z M53.2,66.3c0-0.1,0.1-13.8,12.4-14.4l7.9-0.4
		c5.4-0.7,8.5-2.3,10.4-6.4v16.1c0,0,0,0.5-0.2,1.2c-1.2,4.9-6,7-11.1,7.3l-6.9,0.4c-7.5,0.4-10.1,3.5-12.5,7.4V66.3z M53.2,38.4
		V27.2c0-0.1,0.1-13.8,12.4-14.4l7.9-0.3c5.4-0.7,8.5-2.3,10.4-6.4v16.1c0,0,0,0.5-0.2,1.2c-1.2,4.9-6,7-11.1,7.2L65.7,31
		C58.1,31.4,55.6,34.5,53.2,38.4z"/>
	<path fill="#0081C6" d="M0.1,122.9v-5.1c0.9-4.8,15.2-11.7,15.2-17.3c0-2.7-1.8-4.3-4.6-4.3c-3.1,0-4.9,2.1-5.6,4.9l-5-1.1
		c0.6-4.7,5.1-8.4,10.6-8.4c5.4,0,10,3.1,10,8.9c0,7.5-6.9,10.6-14.6,17.6h14.6v4.8H0.1z"/>
	<path fill="#0081C6" d="M26.1,92h16.7v4.8H30.3l-0.4,7c1-1,2.4-1.8,5.8-1.8c5.6,0,9.2,5.2,9.2,10.3c0,6.8-3.9,11-11.4,11
		c-4.9,0-8.3-2.3-10-5.8l4.6-2.4c0.9,2.2,3.4,3.5,5.5,3.5c3.9,0.1,5.7-2.5,5.7-6.4c0-3.2-2-5.6-5.3-5.6c-2.2,0-3.8,1.1-4.7,2.6
		l-4.4-0.9L26.1,92z"/>
</g>
<g id="guides" display="none">
	
		<line display="inline" fill="none" stroke="#009BD9" stroke-width="0.25" stroke-miterlimit="10" x1="-80.6" y1="139.7" x2="312.8" y2="139.7"/>
	
		<line display="inline" fill="none" stroke="#009BD9" stroke-width="0.25" stroke-miterlimit="10" x1="-80.6" y1="122.9" x2="312.8" y2="122.9"/>
	
		<line display="inline" fill="none" stroke="#009BD9" stroke-width="0.25" stroke-miterlimit="10" x1="0.1" y1="64.9" x2="0.1" y2="159.5"/>
	
		<line display="inline" fill="none" stroke="#009BD9" stroke-width="0.25" stroke-miterlimit="10" x1="61.7" y1="64.9" x2="61.7" y2="159.5"/>
	
		<line display="inline" fill="none" stroke="#009BD9" stroke-width="0.25" stroke-miterlimit="10" x1="42.7" y1="64.9" x2="42.7" y2="159.5"/>
</g>
</svg>
